<svg xmlns="http://www.w3.org/2000/svg" width="40" height="40" viewBox="0 0 50 40" fill="none">
<g clip-path="url(#clip0_2058_3315)">
<path d="M15.7558 11.506C25.2596 7.24472 34.9002 6.01255 42.3046 7.53565C41.4775 7.15916 40.6389 6.51455 40.1312 5.59612C38.7678 3.13177 36.0924 1.66572 33.0291 2.00799C31.7684 2.1506 30.5248 1.83115 29.7034 1.2721C28.5511 0.490588 27.2504 0 25.6817 0C24.1072 0 22.8066 0.490588 21.66 1.2721C20.8386 1.83115 19.595 2.1506 18.3343 2.00799C15.271 1.66572 12.5955 3.13177 11.2322 5.59612C10.6218 6.69139 9.55505 7.39304 8.57387 7.72961C6.13234 8.55676 4.11865 10.7815 3.85054 13.6794C3.72504 15.0428 2.92071 16.1209 2.31603 16.7256C0.684541 18.3571 0 20.2681 0 22.2305C0 22.2647 0 22.2932 0 22.3274C4.00456 18.1631 9.39532 14.3582 15.7558 11.506Z" fill="black"/>
<path d="M24.1415 17.0908C32.2647 13.4456 40.4849 12.0195 47.3303 12.6298C46.7427 10.2568 44.9629 8.48267 42.7895 7.72397C42.6298 7.67263 42.4643 7.60988 42.3046 7.53572C34.9002 6.01262 25.2596 7.24479 15.7558 11.5061C9.39532 14.3583 4.00456 18.1632 0 22.3275C0.045636 26.178 2.92071 29.344 6.64005 29.8575C10.7587 24.9402 16.8055 20.3823 24.1415 17.0908Z" fill="black"/>
<path d="M49.0359 16.7199C48.4313 16.1152 47.6326 15.0428 47.5014 13.6737C47.4672 13.3143 47.4101 12.9663 47.3246 12.6298C40.4849 12.0194 32.259 13.4455 24.1358 17.0907C16.7941 20.3822 10.753 24.9344 6.63434 29.8574C6.97661 29.903 7.33029 29.9315 7.68967 29.9315H18.7393C19.7889 29.9315 20.6389 30.7986 20.6389 31.854V32.2989C20.6389 34.0673 18.8933 34.3012 18.8933 34.3012L9.90873 35.8471C9.58927 35.8984 9.31546 36.1152 9.31546 36.4347V37.5356H42.0251V36.4347C42.0251 36.1209 41.7513 35.8984 41.4318 35.8471L32.4472 34.3012C32.4472 34.3012 30.7016 34.0673 30.7016 32.2989V31.854C30.7016 30.8043 31.5516 29.9315 32.6012 29.9315H43.6509C47.9007 29.9315 51.3463 26.486 51.3463 22.2304C51.3577 20.2681 50.6731 18.3571 49.0359 16.7199Z" fill="black"/>
<path d="M15.7558 11.506C25.2538 7.24472 34.9002 6.01255 42.3046 7.53565C41.4775 7.15916 40.6389 6.51455 40.1312 5.59612C38.7678 3.13748 36.0924 1.67142 33.0291 2.00799C31.7684 2.1506 30.5248 1.83115 29.7034 1.2721C28.5511 0.490588 27.2504 0 25.6817 0C24.1072 0 22.8066 0.490588 21.66 1.2721C20.8386 1.83115 19.595 2.1506 18.3343 2.00799C15.271 1.66572 12.5955 3.13177 11.2322 5.59612C10.6218 6.69139 9.55505 7.39304 8.57387 7.72961C6.12664 8.55676 4.11865 10.7815 3.85054 13.6794C3.72504 15.0428 2.92071 16.1209 2.32173 16.7199C0.684541 18.3571 0 20.2738 0 22.2305C0 22.2647 0 22.2932 0 22.3274C4.00456 18.1631 9.39532 14.3639 15.7558 11.506Z" fill="url(#paint0_linear_2058_3315)"/>
<path d="M24.1415 17.0965C32.2647 13.4513 40.4849 12.0252 47.3303 12.6355C46.7427 10.2625 44.9629 8.48837 42.7895 7.72967C42.6298 7.67833 42.4701 7.60988 42.3046 7.53572C34.9002 6.01262 25.2538 7.24479 15.7558 11.5061C9.39532 14.364 4.00456 18.1632 0 22.3275C0.045636 26.178 2.92071 29.344 6.64005 29.8575C10.7587 24.9402 16.8055 20.3823 24.1415 17.0965Z" fill="url(#paint1_linear_2058_3315)"/>
<path d="M49.0361 16.7198C48.4371 16.1208 47.6328 15.0427 47.5073 13.6793C47.4731 13.3199 47.416 12.9719 47.3304 12.6354C40.4907 12.025 32.2648 13.4511 24.1416 17.0963C16.8056 20.3878 10.7589 24.94 6.6402 29.8573C6.98247 29.9029 7.33615 29.9314 7.69553 29.9314H18.7452C19.7948 29.9314 20.6448 30.8042 20.6448 31.8539V32.2988C20.6448 34.0672 18.8992 34.3011 18.8992 34.3011L9.91458 35.847C9.59513 35.8984 9.32132 36.1151 9.32132 36.4346V37.5355H42.031V36.4346C42.031 36.1208 41.7571 35.8984 41.4377 35.847L32.4531 34.3011C32.4531 34.3011 30.7075 34.0615 30.7075 32.2988V31.8539C30.7075 30.8042 31.5575 29.9314 32.6071 29.9314H43.6624C47.9123 29.9314 51.3578 26.4859 51.3578 22.2361C51.3578 20.2737 50.6733 18.357 49.0361 16.7198Z" fill="#009143"/>
</g>
<defs>
<linearGradient id="paint0_linear_2058_3315" x1="32.1605" y1="-1.52727" x2="7.7563" y2="28.6094" gradientUnits="userSpaceOnUse">
<stop stop-color="#6FBA2C"/>
<stop offset="0.3125" stop-color="#30A938"/>
<stop offset="0.7712" stop-color="#009641"/>
<stop offset="1" stop-color="#009143"/>
</linearGradient>
<linearGradient id="paint1_linear_2058_3315" x1="39.8096" y1="-2.45493" x2="10.7091" y2="33.4812" gradientUnits="userSpaceOnUse">
<stop stop-color="#45B035"/>
<stop offset="0.27" stop-color="#00A23D"/>
<stop offset="0.5437" stop-color="#009841"/>
<stop offset="0.7948" stop-color="#009243"/>
<stop offset="1" stop-color="#009143"/>
</linearGradient>
<clipPath id="clip0_2058_3315">
<rect width="197.838" height="40" fill="white"/>
</clipPath>
</defs>
</svg>